<?xml version="1.0" standalone="no"?>
<!DOCTYPE svg PUBLIC "-//W3C//DTD SVG 20010904//EN"
 "http://www.w3.org/TR/2001/REC-SVG-20010904/DTD/svg10.dtd">
<svg version="1.0" xmlns="http://www.w3.org/2000/svg"
 width="332.000000pt" height="72.000000pt" viewBox="0 0 332.000000 72.000000"
 preserveAspectRatio="xMidYMid meet">

<g transform="translate(0.000000,72.000000) scale(0.100000,-0.100000)"
fill="#000000" stroke="none">
<path d="M353 709 c-173 -34 -277 -175 -190 -257 50 -47 91 -56 289 -60 l187
-4 10 38 c22 84 71 283 71 288 0 9 -320 5 -367 -5z"/>
<path d="M1011 667 c-19 -29 -68 -103 -108 -164 l-73 -113 133 0 134 0 -23
151 c-13 83 -24 157 -26 164 -2 8 -18 -9 -37 -38z"/>
<path d="M1396 712 c-3 -5 -23 -79 -44 -165 l-40 -157 132 0 132 0 37 153 c21
83 37 158 37 165 0 9 -32 12 -124 12 -69 0 -127 -4 -130 -8z"/>
<path d="M2596 572 c-20 -81 -39 -155 -42 -164 -5 -17 16 -18 340 -18 l345 0
10 38 c19 69 70 286 68 288 -1 1 -74 -45 -162 -103 -88 -57 -179 -115 -203
-130 l-43 -25 -138 131 -139 131 -36 -148z"/>
<path d="M2172 552 l-103 -157 127 -3 c70 -1 129 -1 131 2 6 5 -40 316 -47
316 -3 0 -51 -71 -108 -158z"/>
<path d="M46 183 c-20 -82 -39 -156 -42 -167 -6 -17 2 -18 182 -14 218 6 268
17 339 80 55 48 74 101 55 148 -31 74 -120 100 -341 100 l-157 0 -36 -147z"/>
<path d="M685 170 c-58 -89 -105 -163 -105 -165 0 -3 131 -5 291 -5 l291 0 -5
23 c-3 12 -15 86 -27 165 l-22 142 -159 0 -159 0 -105 -160z"/>
<path d="M1295 318 c-8 -25 -75 -297 -75 -307 0 -8 87 -11 268 -11 l268 0 37
152 c21 84 37 159 37 166 0 9 -60 12 -265 12 -204 0 -267 -3 -270 -12z"/>
<path d="M1927 179 c-54 -83 -101 -157 -104 -165 -4 -12 41 -14 281 -14 l286
0 -1 28 c0 15 -10 88 -22 162 l-22 135 -160 3 -160 2 -98 -151z"/>
<path d="M2497 178 c-21 -84 -37 -159 -37 -166 0 -10 72 -12 342 -10 l342 3
38 150 c20 83 38 156 38 163 0 9 -75 12 -343 12 l-343 0 -37 -152z"/>
</g>
</svg>
